<svg xmlns="http://www.w3.org/2000/svg" viewBox="0 0 24 24">
  <rect width="24" height="24" rx="6" fill="#2d4f3d"/>
  <g fill="none" stroke="#fbf9f8" stroke-width="1.2" stroke-linecap="round" stroke-linejoin="round">
    <path d="M10.5 4.5C8 4.5 6 6.5 6 9c0 1.5.5 2.5 1.5 3.5C6 13.5 5.5 15 5.5 16c0 2 1.5 3.5 3.5 3.5"/>
    <path d="M13.5 4.5C16 4.5 18 6.5 18 9c0 1.5-.5 2.5-1.5 3.5C18 13.5 18.5 15 18.5 16c0 2-1.5 3.5-3.5 3.5"/>
    <path d="M9 14.5c0 1.5 1 2.5 3 2.5s3-1 3-2.5"/>
    <path d="M7.5 8.5c0 1.5 1 2.5 2 2.5"/>
    <path d="M16.5 8.5c0 1.5-1 2.5-2 2.5"/>
    <path d="M9 11.5c-.5.5-1 1.5-1 2.5"/>
    <path d="M15 11.5c.5.5 1 1.5 1 2.5"/>
    <path d="M9 18.5C7 18.5 5.5 17 5.5 15"/>
    <path d="M15 18.5c2 0 3.5-1.5 3.5-3.5"/>
    <path d="M10.5 19c0 1 1 1.5 1.5 1.5s1.5-.5 1.5-1.5"/>
  </g>
</svg>
